  0
SECTION
  2
HEADER
  9
$ACADVER
  1
AC1014
  9
$HANDSEED
  5
FFFF
  9
$MEASUREMENT
 70
     1
  0
ENDSEC
  0
SECTION
  2
TABLES
  0
TABLE
  2
VPORT
  5
8
330
0
100
AcDbSymbolTable
 70
     4
  0
VPORT
  5
2E
330
8
100
AcDbSymbolTableRecord
100
AcDbViewportTableRecord
  2
*ACTIVE
 70
     0
 10
0.0
 20
0.0
 11
1.0
 21
1.0
 12
210.0
 22
148.5
 13
0.0
 23
0.0
 14
10.0
 24
10.0
 15
10.0
 25
10.0
 16
0.0
 26
0.0
 36
1.0
 17
0.0
 27
0.0
 37
0.0
 40
341.0
 41
1.24
 42
50.0
 43
0.0
 44
0.0
 50
0.0
 51
0.0
 71
     0
 72
   100
 73
     1
 74
     3
 75
     0
 76
     0
 77
     0
 78
     0
  0
ENDTAB
  0
TABLE
  2
LTYPE
  5
5
330
0
100
AcDbSymbolTable
 70
     1
  0
LTYPE
  5
14
330
5
100
AcDbSymbolTableRecord
100
AcDbLinetypeTableRecord
  2
BYBLOCK
 70
     0
  3

 72
    65
 73
     0
 40
0.0
  0
LTYPE
  5
15
330
5
100
AcDbSymbolTableRecord
100
AcDbLinetypeTableRecord
  2
BYLAYER
 70
     0
  3

 72
    65
 73
     0
 40
0.0
  0
LTYPE
  5
16
330
5
100
AcDbSymbolTableRecord
100
AcDbLinetypeTableRecord
  2
CONTINUOUS
 70
     0
  3
Solid line
 72
    65
 73
     0
 40
0.0
  0
ENDTAB
  0
TABLE
  2
LAYER
  5
2
100
AcDbSymbolTable
 70
4
  0
LAYER
  5
50
100
AcDbSymbolTableRecord
100
AcDbLayerTableRecord
  2
0
 70
0
  6
CONTINUOUS
  0
LAYER
  5
51
100
AcDbSymbolTableRecord
100
AcDbLayerTableRecord
  2
mfos_vco_VI_panel_2
 70
0
  6
CONTINUOUS
  0
LAYER
  5
52
100
AcDbSymbolTableRecord
100
AcDbLayerTableRecord
  2
holes
 70
0
  6
CONTINUOUS
  0
LAYER
  5
53
100
AcDbSymbolTableRecord
100
AcDbLayerTableRecord
  2
text
 70
0
  6
CONTINUOUS
  0
ENDTAB
  0
TABLE
  2
STYLE
  5
3
330
0
100
AcDbSymbolTable
 70
     1
  0
STYLE
  5
11
330
3
100
AcDbSymbolTableRecord
100
AcDbTextStyleTableRecord
  2
STANDARD
 70
     0
 40
0.0
 41
1.0
 50
0.0
 71
     0
 42
2.5
  3
txt
  4

  0
ENDTAB
  0
TABLE
  2
VIEW
  5
6
330
0
100
AcDbSymbolTable
 70
     0
  0
ENDTAB
  0
TABLE
  2
UCS
  5
7
330
0
100
AcDbSymbolTable
 70
     0
  0
ENDTAB
  0
TABLE
  2
APPID
  5
9
330
0
100
AcDbSymbolTable
 70
     2
  0
APPID
  5
12
330
9
100
AcDbSymbolTableRecord
100
AcDbRegAppTableRecord
  2
ACAD
 70
     0
  0
ENDTAB
  0
TABLE
  2
DIMSTYLE
  5
A
330
0
100
AcDbSymbolTable
 70
     1
  0
DIMSTYLE
105
27
330
A
100
AcDbSymbolTableRecord
100
AcDbDimStyleTableRecord
  2
ISO-25
 70
     0
  3

  4

  5

  6

  7

 40
1.0
 41
2.5
 42
0.625
 43
3.75
 44
1.25
 45
0.0
 46
0.0
 47
0.0
 48
0.0
140
2.5
141
2.5
142
0.0
143
0.03937007874016
144
1.0
145
0.0
146
1.0
147
0.625
 71
     0
 72
     0
 73
     0
 74
     0
 75
     0
 76
     0
 77
     1
 78
     8
170
     0
171
     3
172
     1
173
     0
174
     0
175
     0
176
     0
177
     0
178
     0
270
     2
271
     2
272
     2
273
     2
274
     3
340
11
275
     0
280
     0
281
     0
282
     0
283
     0
284
     8
285
     0
286
     0
287
     3
288
     0
  0
ENDTAB
  0
TABLE
  2
BLOCK_RECORD
  5
1
330
0
100
AcDbSymbolTable
 70
     1
  0
BLOCK_RECORD
  5
1F
330
1
100
AcDbSymbolTableRecord
100
AcDbBlockTableRecord
  2
*MODEL_SPACE
  0
BLOCK_RECORD
  5
1B
330
1
100
AcDbSymbolTableRecord
100
AcDbBlockTableRecord
  2
*PAPER_SPACE
  0
ENDTAB
  0
ENDSEC
  0
SECTION
  2
BLOCKS
  0
BLOCK
  5
20
330
1F
100
AcDbEntity
  8
0
100
AcDbBlockBegin
  2
*MODEL_SPACE
 70
     0
 10
0.0
 20
0.0
 30
0.0
  3
*MODEL_SPACE
  1

  0
ENDBLK
  5
21
330
1F
100
AcDbEntity
  8
0
100
AcDbBlockEnd
  0
BLOCK
  5
1C
330
1B
100
AcDbEntity
 67
     1
  8
0
100
AcDbBlockBegin
  2
*PAPER_SPACE
  1

  0
ENDBLK
  5
1D
330
1B
100
AcDbEntity
 67
     1
  8
0
100
AcDbBlockEnd
  0
ENDSEC
  0
SECTION
  2
ENTITIES
  0
LWPOLYLINE
  5
100
100
AcDbEntity
  8
text
 62
5
100
AcDbPolyline
 90
5
 70
1
 10
-10.276153
 20
280.970084
 30
0.0
 10
192.932805
 20
280.970084
 30
0.0
 10
192.932805
 20
13.777366
 30
0.0
 10
-10.276153
 20
13.777366
 30
0.0
 10
-10.276153
 20
280.970084
 30
0.0
  0
SPLINE
  5
101
100
AcDbEntity
  8
text
 62
1
100
AcDbSpline
 70
8
 71
3
 72
8
 73
4
 74
0
 40
0
 40
0
 40
0
 40
0
 40
1
 40
1
 40
1
 40
1
 10
34.373507
 20
272.690118
 30
0.0
 10
34.373706
 20
272.604257
 30
0.0
 10
34.323433
 20
272.524841
 30
0.0
 10
34.241673
 20
272.481859
 30
0.0
  0
SPLINE
  5
102
100
AcDbEntity
  8
text
 62
1
100
AcDbSpline
 70
8
 71
3
 72
8
 73
4
 74
0
 40
0
 40
0
 40
0
 40
0
 40
1
 40
1
 40
1
 40
1
 10
34.241673
 20
272.481859
 30
0.0
 10
34.159913
 20
272.438876
 30
0.0
 10
34.059123
 20
272.438876
 30
0.0
 10
33.977362
 20
272.481859
 30
0.0
  0
SPLINE
  5
103
100
AcDbEntity
  8
text
 62
1
100
AcDbSpline
 70
8
 71
3
 72
8
 73
4
 74
0
 40
0
 40
0
 40
0
 40
0
 40
1
 40
1
 40
1
 40
1
 10
33.977362
 20
272.481859
 30
0.0
 10
33.895602
 20
272.524841
 30
0.0
 10
33.845330
 20
272.604257
 30
0.0
 10
33.845528
 20
272.690118
 30
0.0
  0
SPLINE
  5
104
100
AcDbEntity
  8
text
 62
1
100
AcDbSpline
 70
8
 71
3
 72
8
 73
4
 74
0
 40
0
 40
0
 40
0
 40
0
 40
1
 40
1
 40
1
 40
1
 10
33.845528
 20
272.690118
 30
0.0
 10
33.845330
 20
272.775978
 30
0.0
 10
33.895602
 20
272.855394
 30
0.0
 10
33.977362
 20
272.898376
 30
0.0
  0
SPLINE
  5
105
100
AcDbEntity
  8
text
 62
1
100
AcDbSpline
 70
8
 71
3
 72
8
 73
4
 74
0
 40
0
 40
0
 40
0
 40
0
 40
1
 40
1
 40
1
 40
1
 10
33.977362
 20
272.898376
 30
0.0
 10
34.059123
 20
272.941359
 30
0.0
 10
34.159913
 20
272.941359
 30
0.0
 10
34.241673
 20
272.898376
 30
0.0
  0
SPLINE
  5
106
100
AcDbEntity
  8
text
 62
1
100
AcDbSpline
 70
8
 71
3
 72
8
 73
4
 74
0
 40
0
 40
0
 40
0
 40
0
 40
1
 40
1
 40
1
 40
1
 10
34.241673
 20
272.898376
 30
0.0
 10
34.323433
 20
272.855394
 30
0.0
 10
34.373706
 20
272.775978
 30
0.0
 10
34.373507
 20
272.690118
 30
0.0
  0
LWPOLYLINE
  5
107
100
AcDbEntity
  8
text
 62
7
100
AcDbPolyline
 90
6
 70
0
 10
15.496609
 20
147.750922
 30
0.0
 10
0.020300
 20
147.750922
 30
0.0
 10
0.020300
 20
275.907687
 30
0.0
 10
42.873026
 20
275.907687
 30
0.0
 10
42.873026
 20
147.750922
 30
0.0
 10
0.020300
 20
147.750922
 30
0.0
  0
LWPOLYLINE
  5
108
100
AcDbEntity
  8
text
 62
1
100
AcDbPolyline
 90
2
 70
1
 10
34.373507
 20
272.690118
 30
0.0
 10
34.373507
 20
272.690118
 30
0.0
  0
LWPOLYLINE
  5
109
100
AcDbEntity
  8
text
 62
1
100
AcDbPolyline
 90
2
 70
0
 10
20.725900
 20
218.841134
 30
0.0
 10
16.271265
 20
210.822777
 30
0.0
  0
LWPOLYLINE
  5
10a
100
AcDbEntity
  8
text
 62
1
100
AcDbPolyline
 90
2
 70
0
 10
20.725900
 20
218.841134
 30
0.0
 10
12.529371
 20
214.742872
 30
0.0
  0
LWPOLYLINE
  5
10b
100
AcDbEntity
  8
text
 62
1
100
AcDbPolyline
 90
2
 70
0
 10
20.725900
 20
218.841134
 30
0.0
 10
11.638447
 20
219.910248
 30
0.0
  0
LWPOLYLINE
  5
10c
100
AcDbEntity
  8
text
 62
1
100
AcDbPolyline
 90
2
 70
0
 10
20.725900
 20
218.841134
 30
0.0
 10
13.776669
 20
224.721262
 30
0.0
  0
LWPOLYLINE
  5
10d
100
AcDbEntity
  8
text
 62
1
100
AcDbPolyline
 90
2
 70
0
 10
20.725900
 20
218.841134
 30
0.0
 10
18.231304
 20
227.572214
 30
0.0
  0
LWPOLYLINE
  5
10e
100
AcDbEntity
  8
text
 62
1
100
AcDbPolyline
 90
2
 70
0
 10
20.725900
 20
218.841134
 30
0.0
 10
23.220494
 20
227.572214
 30
0.0
  0
LWPOLYLINE
  5
10f
100
AcDbEntity
  8
text
 62
1
100
AcDbPolyline
 90
2
 70
0
 10
20.725900
 20
218.841134
 30
0.0
 10
27.675129
 20
224.721262
 30
0.0
  0
LWPOLYLINE
  5
110
100
AcDbEntity
  8
text
 62
1
100
AcDbPolyline
 90
2
 70
0
 10
20.725900
 20
218.841134
 30
0.0
 10
29.813354
 20
219.910248
 30
0.0
  0
LWPOLYLINE
  5
111
100
AcDbEntity
  8
text
 62
1
100
AcDbPolyline
 90
2
 70
0
 10
20.725900
 20
218.841134
 30
0.0
 10
28.922427
 20
214.742872
 30
0.0
  0
LWPOLYLINE
  5
112
100
AcDbEntity
  8
text
 62
1
100
AcDbPolyline
 90
2
 70
0
 10
20.725900
 20
218.841134
 30
0.0
 10
25.358719
 20
210.822777
 30
0.0
  0
LWPOLYLINE
  5
113
100
AcDbEntity
  8
text
 62
1
100
AcDbPolyline
 90
2
 70
0
 10
20.725900
 20
218.841134
 30
0.0
 10
16.805823
 20
211.891891
 30
0.0
  0
LWPOLYLINE
  5
114
100
AcDbEntity
  8
text
 62
1
100
AcDbPolyline
 90
2
 70
0
 10
20.725900
 20
218.841134
 30
0.0
 10
15.736708
 20
212.426448
 30
0.0
  0
LWPOLYLINE
  5
115
100
AcDbEntity
  8
text
 62
1
100
AcDbPolyline
 90
2
 70
0
 10
20.725900
 20
218.841134
 30
0.0
 10
14.845781
 20
213.317396
 30
0.0
  0
LWPOLYLINE
  5
116
100
AcDbEntity
  8
text
 62
1
100
AcDbPolyline
 90
2
 70
0
 10
20.725900
 20
218.841134
 30
0.0
 10
14.133040
 20
214.208315
 30
0.0
  0
LWPOLYLINE
  5
117
100
AcDbEntity
  8
text
 62
1
100
AcDbPolyline
 90
2
 70
0
 10
20.725900
 20
218.841134
 30
0.0
 10
13.420299
 20
215.277429
 30
0.0
  0
LWPOLYLINE
  5
118
100
AcDbEntity
  8
text
 62
1
100
AcDbPolyline
 90
2
 70
0
 10
20.725900
 20
218.841134
 30
0.0
 10
13.063928
 20
216.346543
 30
0.0
  0
LWPOLYLINE
  5
119
100
AcDbEntity
  8
text
 62
1
100
AcDbPolyline
 90
2
 70
0
 10
20.725900
 20
218.841134
 30
0.0
 10
12.707558
 20
217.593824
 30
0.0
  0
LWPOLYLINE
  5
11a
100
AcDbEntity
  8
text
 62
1
100
AcDbPolyline
 90
2
 70
0
 10
20.725900
 20
218.841134
 30
0.0
 10
12.707558
 20
218.662939
 30
0.0
  0
LWPOLYLINE
  5
11b
100
AcDbEntity
  8
text
 62
1
100
AcDbPolyline
 90
2
 70
0
 10
20.725900
 20
218.841134
 30
0.0
 10
12.707558
 20
219.732053
 30
0.0
  0
LWPOLYLINE
  5
11c
100
AcDbEntity
  8
text
 62
1
100
AcDbPolyline
 90
2
 70
0
 10
20.725900
 20
218.841134
 30
0.0
 10
12.885742
 20
220.801167
 30
0.0
  0
LWPOLYLINE
  5
11d
100
AcDbEntity
  8
text
 62
1
100
AcDbPolyline
 90
2
 70
0
 10
20.725900
 20
218.841134
 30
0.0
 10
13.242115
 20
222.048476
 30
0.0
  0
LWPOLYLINE
  5
11e
100
AcDbEntity
  8
text
 62
1
100
AcDbPolyline
 90
2
 70
0
 10
20.725900
 20
218.841134
 30
0.0
 10
13.776669
 20
223.117591
 30
0.0
  0
LWPOLYLINE
  5
11f
100
AcDbEntity
  8
text
 62
1
100
AcDbPolyline
 90
2
 70
0
 10
20.725900
 20
218.841134
 30
0.0
 10
14.489410
 20
224.008510
 30
0.0
  0
LWPOLYLINE
  5
120
100
AcDbEntity
  8
text
 62
1
100
AcDbPolyline
 90
2
 70
0
 10
20.725900
 20
218.841134
 30
0.0
 10
15.380338
 20
224.899429
 30
0.0
  0
LWPOLYLINE
  5
121
100
AcDbEntity
  8
text
 62
1
100
AcDbPolyline
 90
2
 70
0
 10
20.725900
 20
218.841134
 30
0.0
 10
16.271265
 20
225.612181
 30
0.0
  0
LWPOLYLINE
  5
122
100
AcDbEntity
  8
text
 62
1
100
AcDbPolyline
 90
2
 70
0
 10
20.725900
 20
218.841134
 30
0.0
 10
17.340377
 20
226.146738
 30
0.0
  0
LWPOLYLINE
  5
123
100
AcDbEntity
  8
text
 62
1
100
AcDbPolyline
 90
2
 70
0
 10
20.725900
 20
218.841134
 30
0.0
 10
18.409491
 20
226.681295
 30
0.0
  0
LWPOLYLINE
  5
124
100
AcDbEntity
  8
text
 62
1
100
AcDbPolyline
 90
2
 70
0
 10
20.725900
 20
218.841134
 30
0.0
 10
19.656786
 20
226.859462
 30
0.0
  0
LWPOLYLINE
  5
125
100
AcDbEntity
  8
text
 62
1
100
AcDbPolyline
 90
2
 70
0
 10
20.725900
 20
218.841134
 30
0.0
 10
20.725900
 20
227.037657
 30
0.0
  0
LWPOLYLINE
  5
126
100
AcDbEntity
  8
text
 62
1
100
AcDbPolyline
 90
2
 70
0
 10
20.725900
 20
218.841134
 30
0.0
 10
21.795012
 20
226.859462
 30
0.0
  0
LWPOLYLINE
  5
127
100
AcDbEntity
  8
text
 62
1
100
AcDbPolyline
 90
2
 70
0
 10
20.725900
 20
218.841134
 30
0.0
 10
23.042310
 20
226.681295
 30
0.0
  0
LWPOLYLINE
  5
128
100
AcDbEntity
  8
text
 62
1
100
AcDbPolyline
 90
2
 70
0
 10
20.725900
 20
218.841134
 30
0.0
 10
24.111421
 20
226.146738
 30
0.0
  0
LWPOLYLINE
  5
129
100
AcDbEntity
  8
text
 62
1
100
AcDbPolyline
 90
2
 70
0
 10
20.725900
 20
218.841134
 30
0.0
 10
25.180533
 20
225.612181
 30
0.0
  0
LWPOLYLINE
  5
12a
100
AcDbEntity
  8
text
 62
1
100
AcDbPolyline
 90
2
 70
0
 10
20.725900
 20
218.841134
 30
0.0
 10
26.071460
 20
224.899429
 30
0.0
  0
LWPOLYLINE
  5
12b
100
AcDbEntity
  8
text
 62
1
100
AcDbPolyline
 90
2
 70
0
 10
20.725900
 20
218.841134
 30
0.0
 10
26.962388
 20
224.008510
 30
0.0
  0
LWPOLYLINE
  5
12c
100
AcDbEntity
  8
text
 62
1
100
AcDbPolyline
 90
2
 70
0
 10
20.725900
 20
218.841134
 30
0.0
 10
27.675129
 20
223.117591
 30
0.0
  0
LWPOLYLINE
  5
12d
100
AcDbEntity
  8
text
 62
1
100
AcDbPolyline
 90
2
 70
0
 10
20.725900
 20
218.841134
 30
0.0
 10
28.209686
 20
222.048476
 30
0.0
  0
LWPOLYLINE
  5
12e
100
AcDbEntity
  8
text
 62
1
100
AcDbPolyline
 90
2
 70
0
 10
20.725900
 20
218.841134
 30
0.0
 10
28.566056
 20
220.801167
 30
0.0
  0
LWPOLYLINE
  5
12f
100
AcDbEntity
  8
text
 62
1
100
AcDbPolyline
 90
2
 70
0
 10
20.725900
 20
218.841134
 30
0.0
 10
28.744243
 20
219.732053
 30
0.0
  0
LWPOLYLINE
  5
130
100
AcDbEntity
  8
text
 62
1
100
AcDbPolyline
 90
2
 70
0
 10
20.725900
 20
218.841134
 30
0.0
 10
28.744243
 20
218.662939
 30
0.0
  0
LWPOLYLINE
  5
131
100
AcDbEntity
  8
text
 62
1
100
AcDbPolyline
 90
2
 70
0
 10
20.725900
 20
218.841134
 30
0.0
 10
28.744243
 20
217.593824
 30
0.0
  0
LWPOLYLINE
  5
132
100
AcDbEntity
  8
text
 62
1
100
AcDbPolyline
 90
2
 70
0
 10
20.725900
 20
218.841134
 30
0.0
 10
28.387870
 20
216.346543
 30
0.0
  0
LWPOLYLINE
  5
133
100
AcDbEntity
  8
text
 62
1
100
AcDbPolyline
 90
2
 70
0
 10
20.725900
 20
218.841134
 30
0.0
 10
28.031499
 20
215.277429
 30
0.0
  0
LWPOLYLINE
  5
134
100
AcDbEntity
  8
text
 62
1
100
AcDbPolyline
 90
2
 70
0
 10
20.725900
 20
218.841134
 30
0.0
 10
27.318758
 20
214.208315
 30
0.0
  0
LWPOLYLINE
  5
135
100
AcDbEntity
  8
text
 62
1
100
AcDbPolyline
 90
2
 70
0
 10
20.725900
 20
218.841134
 30
0.0
 10
26.606017
 20
213.317396
 30
0.0
  0
LWPOLYLINE
  5
136
100
AcDbEntity
  8
text
 62
1
100
AcDbPolyline
 90
2
 70
0
 10
20.725900
 20
218.841134
 30
0.0
 10
25.715090
 20
212.426448
 30
0.0
  0
SPLINE
  5
137
100
AcDbEntity
  8
text
 62
1
100
AcDbSpline
 70
8
 71
3
 72
8
 73
4
 74
0
 40
0
 40
0
 40
0
 40
0
 40
1
 40
1
 40
1
 40
1
 10
18.053118
 20
218.841134
 30
0.0
 10
18.053118
 20
220.444805
 30
0.0
 10
19.122232
 20
221.513919
 30
0.0
 10
20.725900
 20
221.513919
 30
0.0
  0
SPLINE
  5
138
100
AcDbEntity
  8
text
 62
1
100
AcDbSpline
 70
8
 71
3
 72
8
 73
4
 74
0
 40
0
 40
0
 40
0
 40
0
 40
1
 40
1
 40
1
 40
1
 10
20.725900
 20
221.513919
 30
0.0
 10
22.329569
 20
221.513919
 30
0.0
 10
23.398680
 20
220.444805
 30
0.0
 10
23.398680
 20
218.841134
 30
0.0
  0
SPLINE
  5
139
100
AcDbEntity
  8
text
 62
1
100
AcDbSpline
 70
8
 71
3
 72
8
 73
4
 74
0
 40
0
 40
0
 40
0
 40
0
 40
1
 40
1
 40
1
 40
1
 10
23.398680
 20
218.841134
 30
0.0
 10
23.398680
 20
217.237462
 30
0.0
 10
22.329569
 20
216.168348
 30
0.0
 10
20.725900
 20
216.168348
 30
0.0
  0
SPLINE
  5
13a
100
AcDbEntity
  8
text
 62
1
100
AcDbSpline
 70
8
 71
3
 72
8
 73
4
 74
0
 40
0
 40
0
 40
0
 40
0
 40
1
 40
1
 40
1
 40
1
 10
20.725900
 20
216.168348
 30
0.0
 10
19.122232
 20
216.168348
 30
0.0
 10
18.053118
 20
217.237462
 30
0.0
 10
18.053118
 20
218.841134
 30
0.0
  0
LWPOLYLINE
  5
13b
100
AcDbEntity
  8
text
 62
1
100
AcDbPolyline
 90
2
 70
0
 10
20.725900
 20
218.841134
 30
0.0
 10
24.824162
 20
211.891891
 30
0.0
  0
LWPOLYLINE
  5
13c
100
AcDbEntity
  8
text
 62
1
100
AcDbPolyline
 90
2
 70
0
 10
19.656786
 20
218.841134
 30
0.0
 10
21.795012
 20
218.841134
 30
0.0
  0
SPLINE
  5
13d
100
AcDbEntity
  8
text
 62
7
100
AcDbSpline
 70
8
 71
3
 72
8
 73
4
 74
0
 40
0
 40
0
 40
0
 40
0
 40
1
 40
1
 40
1
 40
1
 10
20.937784
 20
218.786815
 30
0.0
 10
20.937784
 20
218.667526
 30
0.0
 10
20.830338
 20
218.570823
 30
0.0
 10
20.697793
 20
218.570823
 30
0.0
  0
SPLINE
  5
13e
100
AcDbEntity
  8
text
 62
7
100
AcDbSpline
 70
8
 71
3
 72
8
 73
4
 74
0
 40
0
 40
0
 40
0
 40
0
 40
1
 40
1
 40
1
 40
1
 10
20.697793
 20
218.570823
 30
0.0
 10
20.565251
 20
218.570823
 30
0.0
 10
20.457801
 20
218.667526
 30
0.0
 10
20.457801
 20
218.786815
 30
0.0
  0
SPLINE
  5
13f
100
AcDbEntity
  8
text
 62
7
100
AcDbSpline
 70
8
 71
3
 72
8
 73
4
 74
0
 40
0
 40
0
 40
0
 40
0
 40
1
 40
1
 40
1
 40
1
 10
20.457801
 20
218.786815
 30
0.0
 10
20.457801
 20
218.906104
 30
0.0
 10
20.565251
 20
219.002807
 30
0.0
 10
20.697793
 20
219.002807
 30
0.0
  0
SPLINE
  5
140
100
AcDbEntity
  8
text
 62
7
100
AcDbSpline
 70
8
 71
3
 72
8
 73
4
 74
0
 40
0
 40
0
 40
0
 40
0
 40
1
 40
1
 40
1
 40
1
 10
20.697793
 20
219.002807
 30
0.0
 10
20.830338
 20
219.002807
 30
0.0
 10
20.937784
 20
218.906104
 30
0.0
 10
20.937784
 20
218.786815
 30
0.0
  0
LWPOLYLINE
  5
141
100
AcDbEntity
  8
text
 62
1
100
AcDbPolyline
 90
2
 70
0
 10
20.725900
 20
217.772020
 30
0.0
 10
20.725900
 20
219.910248
 30
0.0
  0
SPLINE
  5
142
100
AcDbEntity
  8
text
 62
1
100
AcDbSpline
 70
8
 71
3
 72
8
 73
4
 74
0
 40
0
 40
0
 40
0
 40
0
 40
1
 40
1
 40
1
 40
1
 10
8.925511
 20
151.374785
 30
0.0
 10
8.925511
 20
151.314766
 30
0.0
 10
8.884343
 20
151.259307
 30
0.0
 10
8.817515
 20
151.229298
 30
0.0
  0
SPLINE
  5
143
100
AcDbEntity
  8
text
 62
1
100
AcDbSpline
 70
8
 71
3
 72
8
 73
4
 74
0
 40
0
 40
0
 40
0
 40
0
 40
1
 40
1
 40
1
 40
1
 10
8.817515
 20
151.229298
 30
0.0
 10
8.750687
 20
151.199289
 30
0.0
 10
8.668351
 20
151.199289
 30
0.0
 10
8.601523
 20
151.229298
 30
0.0
  0
SPLINE
  5
144
100
AcDbEntity
  8
text
 62
1
100
AcDbSpline
 70
8
 71
3
 72
8
 73
4
 74
0
 40
0
 40
0
 40
0
 40
0
 40
1
 40
1
 40
1
 40
1
 10
8.601523
 20
151.229298
 30
0.0
 10
8.534695
 20
151.259307
 30
0.0
 10
8.493528
 20
151.314766
 30
0.0
 10
8.493528
 20
151.374785
 30
0.0
  0
SPLINE
  5
145
100
AcDbEntity
  8
text
 62
1
100
AcDbSpline
 70
8
 71
3
 72
8
 73
4
 74
0
 40
0
 40
0
 40
0
 40
0
 40
1
 40
1
 40
1
 40
1
 10
8.493528
 20
151.374785
 30
0.0
 10
8.493528
 20
151.434803
 30
0.0
 10
8.534696
 20
151.490262
 30
0.0
 10
8.601524
 20
151.520271
 30
0.0
  0
SPLINE
  5
146
100
AcDbEntity
  8
text
 62
1
100
AcDbSpline
 70
8
 71
3
 72
8
 73
4
 74
0
 40
0
 40
0
 40
0
 40
0
 40
1
 40
1
 40
1
 40
1
 10
8.601524
 20
151.520271
 30
0.0
 10
8.668352
 20
151.550281
 30
0.0
 10
8.750687
 20
151.550281
 30
0.0
 10
8.817515
 20
151.520271
 30
0.0
  0
SPLINE
  5
147
100
AcDbEntity
  8
text
 62
1
100
AcDbSpline
 70
8
 71
3
 72
8
 73
4
 74
0
 40
0
 40
0
 40
0
 40
0
 40
1
 40
1
 40
1
 40
1
 10
8.817515
 20
151.520271
 30
0.0
 10
8.884343
 20
151.490262
 30
0.0
 10
8.925511
 20
151.434803
 30
0.0
 10
8.925511
 20
151.374785
 30
0.0
  0
LWPOLYLINE
  5
148
100
AcDbEntity
  8
text
 62
7
100
AcDbPolyline
 90
2
 70
1
 10
20.937784
 20
218.786815
 30
0.0
 10
20.937784
 20
218.786815
 30
0.0
  0
LWPOLYLINE
  5
149
100
AcDbEntity
  8
text
 62
1
100
AcDbPolyline
 90
2
 70
1
 10
8.925511
 20
151.374785
 30
0.0
 10
8.925511
 20
151.374785
 30
0.0
  0
LWPOLYLINE
  5
14a
100
AcDbEntity
  8
text
 62
1
100
AcDbPolyline
 90
2
 70
0
 10
20.725900
 20
238.051622
 30
0.0
 10
16.271265
 20
230.033266
 30
0.0
  0
LWPOLYLINE
  5
14b
100
AcDbEntity
  8
text
 62
1
100
AcDbPolyline
 90
2
 70
0
 10
20.725900
 20
238.051622
 30
0.0
 10
12.529371
 20
233.953360
 30
0.0
  0
LWPOLYLINE
  5
14c
100
AcDbEntity
  8
text
 62
1
100
AcDbPolyline
 90
2
 70
0
 10
20.725900
 20
238.051622
 30
0.0
 10
11.638446
 20
239.120736
 30
0.0
  0
LWPOLYLINE
  5
14d
100
AcDbEntity
  8
text
 62
1
100
AcDbPolyline
 90
2
 70
0
 10
20.725900
 20
238.051622
 30
0.0
 10
13.776669
 20
243.931750
 30
0.0
  0
LWPOLYLINE
  5
14e
100
AcDbEntity
  8
text
 62
1
100
AcDbPolyline
 90
2
 70
0
 10
20.725900
 20
238.051622
 30
0.0
 10
18.231304
 20
246.782703
 30
0.0
  0
LWPOLYLINE
  5
14f
100
AcDbEntity
  8
text
 62
1
100
AcDbPolyline
 90
2
 70
0
 10
20.725900
 20
238.051622
 30
0.0
 10
23.220493
 20
246.782703
 30
0.0
  0
LWPOLYLINE
  5
150
100
AcDbEntity
  8
text
 62
1
100
AcDbPolyline
 90
2
 70
0
 10
20.725900
 20
238.051622
 30
0.0
 10
27.675128
 20
243.931750
 30
0.0
  0
LWPOLYLINE
  5
151
100
AcDbEntity
  8
text
 62
1
100
AcDbPolyline
 90
2
 70
0
 10
20.725900
 20
238.051622
 30
0.0
 10
29.813354
 20
239.120736
 30
0.0
  0
LWPOLYLINE
  5
152
100
AcDbEntity
  8
text
 62
1
100
AcDbPolyline
 90
2
 70
0
 10
20.725900
 20
238.051622
 30
0.0
 10
28.922426
 20
233.953360
 30
0.0
  0
LWPOLYLINE
  5
153
100
AcDbEntity
  8
text
 62
1
100
AcDbPolyline
 90
2
 70
0
 10
20.725900
 20
238.051622
 30
0.0
 10
25.358719
 20
230.033266
 30
0.0
  0
LWPOLYLINE
  5
154
100
AcDbEntity
  8
text
 62
1
100
AcDbPolyline
 90
2
 70
0
 10
20.725900
 20
238.051622
 30
0.0
 10
16.805822
 20
231.102380
 30
0.0
  0
LWPOLYLINE
  5
155
100
AcDbEntity
  8
text
 62
1
100
AcDbPolyline
 90
2
 70
0
 10
20.725900
 20
238.051622
 30
0.0
 10
15.736708
 20
231.636937
 30
0.0
  0
LWPOLYLINE
  5
156
100
AcDbEntity
  8
text
 62
1
100
AcDbPolyline
 90
2
 70
0
 10
20.725900
 20
238.051622
 30
0.0
 10
14.845780
 20
232.527884
 30
0.0
  0
LWPOLYLINE
  5
157
100
AcDbEntity
  8
text
 62
1
100
AcDbPolyline
 90
2
 70
0
 10
20.725900
 20
238.051622
 30
0.0
 10
14.133039
 20
233.418803
 30
0.0
  0
LWPOLYLINE
  5
158
100
AcDbEntity
  8
text
 62
1
100
AcDbPolyline
 90
2
 70
0
 10
20.725900
 20
238.051622
 30
0.0
 10
13.420298
 20
234.487918
 30
0.0
  0
LWPOLYLINE
  5
159
100
AcDbEntity
  8
text
 62
1
100
AcDbPolyline
 90
2
 70
0
 10
20.725900
 20
238.051622
 30
0.0
 10
13.063928
 20
235.557032
 30
0.0
  0
LWPOLYLINE
  5
15a
100
AcDbEntity
  8
text
 62
1
100
AcDbPolyline
 90
2
 70
0
 10
20.725900
 20
238.051622
 30
0.0
 10
12.707557
 20
236.804313
 30
0.0
  0
LWPOLYLINE
  5
15b
100
AcDbEntity
  8
text
 62
1
100
AcDbPolyline
 90
2
 70
0
 10
20.725900
 20
238.051622
 30
0.0
 10
12.707557
 20
237.873427
 30
0.0
  0
LWPOLYLINE
  5
15c
100
AcDbEntity
  8
text
 62
1
100
AcDbPolyline
 90
2
 70
0
 10
20.725900
 20
238.051622
 30
0.0
 10
12.707557
 20
238.942541
 30
0.0
  0
LWPOLYLINE
  5
15d
100
AcDbEntity
  8
text
 62
1
100
AcDbPolyline
 90
2
 70
0
 10
20.725900
 20
238.051622
 30
0.0
 10
12.885741
 20
240.011656
 30
0.0
  0
LWPOLYLINE
  5
15e
100
AcDbEntity
  8
text
 62
1
100
AcDbPolyline
 90
2
 70
0
 10
20.725900
 20
238.051622
 30
0.0
 10
13.242114
 20
241.258965
 30
0.0
  0
LWPOLYLINE
  5
15f
100
AcDbEntity
  8
text
 62
1
100
AcDbPolyline
 90
2
 70
0
 10
20.725900
 20
238.051622
 30
0.0
 10
13.776669
 20
242.328079
 30
0.0
  0
LWPOLYLINE
  5
160
100
AcDbEntity
  8
text
 62
1
100
AcDbPolyline
 90
2
 70
0
 10
20.725900
 20
238.051622
 30
0.0
 10
14.489410
 20
243.218998
 30
0.0
  0
LWPOLYLINE
  5
161
100
AcDbEntity
  8
text
 62
1
100
AcDbPolyline
 90
2
 70
0
 10
20.725900
 20
238.051622
 30
0.0
 10
15.380337
 20
244.109917
 30
0.0
  0
LWPOLYLINE
  5
162
100
AcDbEntity
  8
text
 62
1
100
AcDbPolyline
 90
2
 70
0
 10
20.725900
 20
238.051622
 30
0.0
 10
16.271265
 20
244.822670
 30
0.0
  0
LWPOLYLINE
  5
163
100
AcDbEntity
  8
text
 62
1
100
AcDbPolyline
 90
2
 70
0
 10
20.725900
 20
238.051622
 30
0.0
 10
17.340376
 20
245.357227
 30
0.0
  0
LWPOLYLINE
  5
164
100
AcDbEntity
  8
text
 62
1
100
AcDbPolyline
 90
2
 70
0
 10
20.725900
 20
238.051622
 30
0.0
 10
18.409490
 20
245.891784
 30
0.0
  0
LWPOLYLINE
  5
165
100
AcDbEntity
  8
text
 62
1
100
AcDbPolyline
 90
2
 70
0
 10
20.725900
 20
238.051622
 30
0.0
 10
19.656786
 20
246.069951
 30
0.0
  0
LWPOLYLINE
  5
166
100
AcDbEntity
  8
text
 62
1
100
AcDbPolyline
 90
2
 70
0
 10
20.725900
 20
238.051622
 30
0.0
 10
20.725900
 20
246.248146
 30
0.0
  0
LWPOLYLINE
  5
167
100
AcDbEntity
  8
text
 62
1
100
AcDbPolyline
 90
2
 70
0
 10
20.725900
 20
238.051622
 30
0.0
 10
21.795011
 20
246.069951
 30
0.0
  0
LWPOLYLINE
  5
168
100
AcDbEntity
  8
text
 62
1
100
AcDbPolyline
 90
2
 70
0
 10
20.725900
 20
238.051622
 30
0.0
 10
23.042309
 20
245.891784
 30
0.0
  0
LWPOLYLINE
  5
169
100
AcDbEntity
  8
text
 62
1
100
AcDbPolyline
 90
2
 70
0
 10
20.725900
 20
238.051622
 30
0.0
 10
24.111421
 20
245.357227
 30
0.0
  0
LWPOLYLINE
  5
16a
100
AcDbEntity
  8
text
 62
1
100
AcDbPolyline
 90
2
 70
0
 10
20.725900
 20
238.051622
 30
0.0
 10
25.180532
 20
244.822670
 30
0.0
  0
LWPOLYLINE
  5
16b
100
AcDbEntity
  8
text
 62
1
100
AcDbPolyline
 90
2
 70
0
 10
20.725900
 20
238.051622
 30
0.0
 10
26.071460
 20
244.109917
 30
0.0
  0
LWPOLYLINE
  5
16c
100
AcDbEntity
  8
text
 62
1
100
AcDbPolyline
 90
2
 70
0
 10
20.725900
 20
238.051622
 30
0.0
 10
26.962387
 20
243.218998
 30
0.0
  0
LWPOLYLINE
  5
16d
100
AcDbEntity
  8
text
 62
1
100
AcDbPolyline
 90
2
 70
0
 10
20.725900
 20
238.051622
 30
0.0
 10
27.675128
 20
242.328079
 30
0.0
  0
LWPOLYLINE
  5
16e
100
AcDbEntity
  8
text
 62
1
100
AcDbPolyline
 90
2
 70
0
 10
20.725900
 20
238.051622
 30
0.0
 10
28.209685
 20
241.258965
 30
0.0
  0
LWPOLYLINE
  5
16f
100
AcDbEntity
  8
text
 62
1
100
AcDbPolyline
 90
2
 70
0
 10
20.725900
 20
238.051622
 30
0.0
 10
28.566056
 20
240.011656
 30
0.0
  0
LWPOLYLINE
  5
170
100
AcDbEntity
  8
text
 62
1
100
AcDbPolyline
 90
2
 70
0
 10
20.725900
 20
238.051622
 30
0.0
 10
28.744242
 20
238.942541
 30
0.0
  0
LWPOLYLINE
  5
171
100
AcDbEntity
  8
text
 62
1
100
AcDbPolyline
 90
2
 70
0
 10
20.725900
 20
238.051622
 30
0.0
 10
28.744242
 20
237.873427
 30
0.0
  0
LWPOLYLINE
  5
172
100
AcDbEntity
  8
text
 62
1
100
AcDbPolyline
 90
2
 70
0
 10
20.725900
 20
238.051622
 30
0.0
 10
28.744242
 20
236.804313
 30
0.0
  0
LWPOLYLINE
  5
173
100
AcDbEntity
  8
text
 62
1
100
AcDbPolyline
 90
2
 70
0
 10
20.725900
 20
238.051622
 30
0.0
 10
28.387869
 20
235.557032
 30
0.0
  0
LWPOLYLINE
  5
174
100
AcDbEntity
  8
text
 62
1
100
AcDbPolyline
 90
2
 70
0
 10
20.725900
 20
238.051622
 30
0.0
 10
28.031499
 20
234.487918
 30
0.0
  0
LWPOLYLINE
  5
175
100
AcDbEntity
  8
text
 62
1
100
AcDbPolyline
 90
2
 70
0
 10
20.725900
 20
238.051622
 30
0.0
 10
27.318758
 20
233.418803
 30
0.0
  0
LWPOLYLINE
  5
176
100
AcDbEntity
  8
text
 62
1
100
AcDbPolyline
 90
2
 70
0
 10
20.725900
 20
238.051622
 30
0.0
 10
26.606017
 20
232.527884
 30
0.0
  0
LWPOLYLINE
  5
177
100
AcDbEntity
  8
text
 62
1
100
AcDbPolyline
 90
2
 70
0
 10
20.725900
 20
238.051622
 30
0.0
 10
25.715089
 20
231.636937
 30
0.0
  0
SPLINE
  5
178
100
AcDbEntity
  8
text
 62
1
100
AcDbSpline
 70
8
 71
3
 72
8
 73
4
 74
0
 40
0
 40
0
 40
0
 40
0
 40
1
 40
1
 40
1
 40
1
 10
18.053117
 20
238.051622
 30
0.0
 10
18.053117
 20
239.655294
 30
0.0
 10
19.122231
 20
240.724408
 30
0.0
 10
20.725900
 20
240.724408
 30
0.0
  0
SPLINE
  5
179
100
AcDbEntity
  8
text
 62
1
100
AcDbSpline
 70
8
 71
3
 72
8
 73
4
 74
0
 40
0
 40
0
 40
0
 40
0
 40
1
 40
1
 40
1
 40
1
 10
20.725900
 20
240.724408
 30
0.0
 10
22.329568
 20
240.724408
 30
0.0
 10
23.398680
 20
239.655294
 30
0.0
 10
23.398680
 20
238.051622
 30
0.0
  0
SPLINE
  5
17a
100
AcDbEntity
  8
text
 62
1
100
AcDbSpline
 70
8
 71
3
 72
8
 73
4
 74
0
 40
0
 40
0
 40
0
 40
0
 40
1
 40
1
 40
1
 40
1
 10
23.398680
 20
238.051622
 30
0.0
 10
23.398680
 20
236.447951
 30
0.0
 10
22.329568
 20
235.378837
 30
0.0
 10
20.725900
 20
235.378837
 30
0.0
  0
SPLINE
  5
17b
100
AcDbEntity
  8
text
 62
1
100
AcDbSpline
 70
8
 71
3
 72
8
 73
4
 74
0
 40
0
 40
0
 40
0
 40
0
 40
1
 40
1
 40
1
 40
1
 10
20.725900
 20
235.378837
 30
0.0
 10
19.122231
 20
235.378837
 30
0.0
 10
18.053117
 20
236.447951
 30
0.0
 10
18.053117
 20
238.051622
 30
0.0
  0
LWPOLYLINE
  5
17c
100
AcDbEntity
  8
text
 62
1
100
AcDbPolyline
 90
2
 70
0
 10
20.725900
 20
238.051622
 30
0.0
 10
24.824162
 20
231.102380
 30
0.0
  0
LWPOLYLINE
  5
17d
100
AcDbEntity
  8
text
 62
1
100
AcDbPolyline
 90
2
 70
0
 10
19.656786
 20
238.051622
 30
0.0
 10
21.795011
 20
238.051622
 30
0.0
  0
SPLINE
  5
17e
100
AcDbEntity
  8
text
 62
7
100
AcDbSpline
 70
8
 71
3
 72
8
 73
4
 74
0
 40
0
 40
0
 40
0
 40
0
 40
1
 40
1
 40
1
 40
1
 10
20.937784
 20
237.997292
 30
0.0
 10
20.937784
 20
237.878003
 30
0.0
 10
20.830337
 20
237.781301
 30
0.0
 10
20.697792
 20
237.781301
 30
0.0
  0
SPLINE
  5
17f
100
AcDbEntity
  8
text
 62
7
100
AcDbSpline
 70
8
 71
3
 72
8
 73
4
 74
0
 40
0
 40
0
 40
0
 40
0
 40
1
 40
1
 40
1
 40
1
 10
20.697792
 20
237.781301
 30
0.0
 10
20.565251
 20
237.781301
 30
0.0
 10
20.457801
 20
237.878003
 30
0.0
 10
20.457801
 20
237.997292
 30
0.0
  0
SPLINE
  5
180
100
AcDbEntity
  8
text
 62
7
100
AcDbSpline
 70
8
 71
3
 72
8
 73
4
 74
0
 40
0
 40
0
 40
0
 40
0
 40
1
 40
1
 40
1
 40
1
 10
20.457801
 20
237.997292
 30
0.0
 10
20.457801
 20
238.116581
 30
0.0
 10
20.565251
 20
238.213284
 30
0.0
 10
20.697792
 20
238.213284
 30
0.0
  0
SPLINE
  5
181
100
AcDbEntity
  8
text
 62
7
100
AcDbSpline
 70
8
 71
3
 72
8
 73
4
 74
0
 40
0
 40
0
 40
0
 40
0
 40
1
 40
1
 40
1
 40
1
 10
20.697792
 20
238.213284
 30
0.0
 10
20.830337
 20
238.213284
 30
0.0
 10
20.937784
 20
238.116581
 30
0.0
 10
20.937784
 20
237.997292
 30
0.0
  0
LWPOLYLINE
  5
182
100
AcDbEntity
  8
text
 62
1
100
AcDbPolyline
 90
2
 70
0
 10
20.725900
 20
236.982508
 30
0.0
 10
20.725900
 20
239.120736
 30
0.0
  0
SPLINE
  5
183
100
AcDbEntity
  8
text
 62
1
100
AcDbSpline
 70
8
 71
3
 72
8
 73
4
 74
0
 40
0
 40
0
 40
0
 40
0
 40
1
 40
1
 40
1
 40
1
 10
9.920963
 20
254.041159
 30
0.0
 10
9.920963
 20
255.812104
 30
0.0
 10
11.102063
 20
256.992851
 30
0.0
 10
12.873008
 20
256.992851
 30
0.0
  0
SPLINE
  5
184
100
AcDbEntity
  8
text
 62
1
100
AcDbSpline
 70
8
 71
3
 72
8
 73
4
 74
0
 40
0
 40
0
 40
0
 40
0
 40
1
 40
1
 40
1
 40
1
 10
12.873008
 20
256.992851
 30
0.0
 10
14.645011
 20
256.992851
 30
0.0
 10
15.824700
 20
255.812104
 30
0.0
 10
15.824700
 20
254.041159
 30
0.0
  0
SPLINE
  5
185
100
AcDbEntity
  8
text
 62
1
100
AcDbSpline
 70
8
 71
3
 72
8
 73
4
 74
0
 40
0
 40
0
 40
0
 40
0
 40
1
 40
1
 40
1
 40
1
 10
15.824700
 20
254.041159
 30
0.0
 10
15.824700
 20
252.270568
 30
0.0
 10
14.645011
 20
251.089468
 30
0.0
 10
12.873008
 20
251.089468
 30
0.0
  0
SPLINE
  5
186
100
AcDbEntity
  8
text
 62
1
100
AcDbSpline
 70
8
 71
3
 72
8
 73
4
 74
0
 40
0
 40
0
 40
0
 40
0
 40
1
 40
1
 40
1
 40
1
 10
12.873008
 20
251.089468
 30
0.0
 10
11.102063
 20
251.089468
 30
0.0
 10
9.920963
 20
252.270568
 30
0.0
 10
9.920963
 20
254.041159
 30
0.0
  0
LWPOLYLINE
  5
187
100
AcDbEntity
  8
text
 62
7
100
AcDbPolyline
 90
2
 70
1
 10
20.937784
 20
237.997292
 30
0.0
 10
20.937784
 20
237.997292
 30
0.0
  0
LWPOLYLINE
  5
188
100
AcDbEntity
  8
text
 62
1
100
AcDbPolyline
 90
2
 70
0
 10
11.693319
 20
254.041159
 30
0.0
 10
14.053755
 20
254.041159
 30
0.0
  0
SPLINE
  5
189
100
AcDbEntity
  8
text
 62
1
100
AcDbSpline
 70
8
 71
3
 72
8
 73
4
 74
0
 40
0
 40
0
 40
0
 40
0
 40
1
 40
1
 40
1
 40
1
 10
9.920963
 20
203.153834
 30
0.0
 10
9.920963
 20
204.924779
 30
0.0
 10
11.102063
 20
206.105526
 30
0.0
 10
12.873008
 20
206.105526
 30
0.0
  0
SPLINE
  5
18a
100
AcDbEntity
  8
text
 62
1
100
AcDbSpline
 70
8
 71
3
 72
8
 73
4
 74
0
 40
0
 40
0
 40
0
 40
0
 40
1
 40
1
 40
1
 40
1
 10
12.873008
 20
206.105526
 30
0.0
 10
14.645011
 20
206.105526
 30
0.0
 10
15.824700
 20
204.924779
 30
0.0
 10
15.824700
 20
203.153834
 30
0.0
  0
SPLINE
  5
18b
100
AcDbEntity
  8
text
 62
1
100
AcDbSpline
 70
8
 71
3
 72
8
 73
4
 74
0
 40
0
 40
0
 40
0
 40
0
 40
1
 40
1
 40
1
 40
1
 10
15.824700
 20
203.153834
 30
0.0
 10
15.824700
 20
201.383242
 30
0.0
 10
14.645011
 20
200.202142
 30
0.0
 10
12.873008
 20
200.202142
 30
0.0
  0
SPLINE
  5
18c
100
AcDbEntity
  8
text
 62
1
100
AcDbSpline
 70
8
 71
3
 72
8
 73
4
 74
0
 40
0
 40
0
 40
0
 40
0
 40
1
 40
1
 40
1
 40
1
 10
12.873008
 20
200.202142
 30
0.0
 10
11.102063
 20
200.202142
 30
0.0
 10
9.920963
 20
201.383242
 30
0.0
 10
9.920963
 20
203.153834
 30
0.0
  0
LWPOLYLINE
  5
18d
100
AcDbEntity
  8
text
 62
1
100
AcDbPolyline
 90
2
 70
0
 10
12.873008
 20
252.860412
 30
0.0
 10
12.873008
 20
255.222259
 30
0.0
  0
LWPOLYLINE
  5
18e
100
AcDbEntity
  8
text
 62
1
100
AcDbPolyline
 90
2
 70
0
 10
11.693319
 20
203.153834
 30
0.0
 10
14.053755
 20
203.153834
 30
0.0
  0
SPLINE
  5
18f
100
AcDbEntity
  8
text
 62
1
100
AcDbSpline
 70
8
 71
3
 72
8
 73
4
 74
0
 40
0
 40
0
 40
0
 40
0
 40
1
 40
1
 40
1
 40
1
 10
9.971763
 20
177.845556
 30
0.0
 10
9.971763
 20
179.616501
 30
0.0
 10
11.152863
 20
180.797248
 30
0.0
 10
12.923808
 20
180.797248
 30
0.0
  0
SPLINE
  5
190
100
AcDbEntity
  8
text
 62
1
100
AcDbSpline
 70
8
 71
3
 72
8
 73
4
 74
0
 40
0
 40
0
 40
0
 40
0
 40
1
 40
1
 40
1
 40
1
 10
12.923808
 20
180.797248
 30
0.0
 10
14.695811
 20
180.797248
 30
0.0
 10
15.875500
 20
179.616501
 30
0.0
 10
15.875500
 20
177.845556
 30
0.0
  0
SPLINE
  5
191
100
AcDbEntity
  8
text
 62
1
100
AcDbSpline
 70
8
 71
3
 72
8
 73
4
 74
0
 40
0
 40
0
 40
0
 40
0
 40
1
 40
1
 40
1
 40
1
 10
15.875500
 20
177.845556
 30
0.0
 10
15.875500
 20
176.074965
 30
0.0
 10
14.695811
 20
174.893865
 30
0.0
 10
12.923808
 20
174.893865
 30
0.0
  0
SPLINE
  5
192
100
AcDbEntity
  8
text
 62
1
100
AcDbSpline
 70
8
 71
3
 72
8
 73
4
 74
0
 40
0
 40
0
 40
0
 40
0
 40
1
 40
1
 40
1
 40
1
 10
12.923808
 20
174.893865
 30
0.0
 10
11.152863
 20
174.893865
 30
0.0
 10
9.971763
 20
176.074965
 30
0.0
 10
9.971763
 20
177.845556
 30
0.0
  0
LWPOLYLINE
  5
193
100
AcDbEntity
  8
text
 62
1
100
AcDbPolyline
 90
2
 70
0
 10
12.873008
 20
201.973087
 30
0.0
 10
12.873008
 20
204.334934
 30
0.0
  0
LWPOLYLINE
  5
194
100
AcDbEntity
  8
text
 62
1
100
AcDbPolyline
 90
2
 70
0
 10
11.744119
 20
177.845556
 30
0.0
 10
14.104555
 20
177.845556
 30
0.0
  0
SPLINE
  5
195
100
AcDbEntity
  8
text
 62
1
100
AcDbSpline
 70
8
 71
3
 72
8
 73
4
 74
0
 40
0
 40
0
 40
0
 40
0
 40
1
 40
1
 40
1
 40
1
 10
9.920963
 20
190.468679
 30
0.0
 10
9.920963
 20
192.239623
 30
0.0
 10
11.102063
 20
193.420371
 30
0.0
 10
12.873008
 20
193.420371
 30
0.0
  0
SPLINE
  5
196
100
AcDbEntity
  8
text
 62
1
100
AcDbSpline
 70
8
 71
3
 72
8
 73
4
 74
0
 40
0
 40
0
 40
0
 40
0
 40
1
 40
1
 40
1
 40
1
 10
12.873008
 20
193.420371
 30
0.0
 10
14.645011
 20
193.420371
 30
0.0
 10
15.824700
 20
192.239623
 30
0.0
 10
15.824700
 20
190.468679
 30
0.0
  0
SPLINE
  5
197
100
AcDbEntity
  8
text
 62
1
100
AcDbSpline
 70
8
 71
3
 72
8
 73
4
 74
0
 40
0
 40
0
 40
0
 40
0
 40
1
 40
1
 40
1
 40
1
 10
15.824700
 20
190.468679
 30
0.0
 10
15.824700
 20
188.698087
 30
0.0
 10
14.645011
 20
187.516987
 30
0.0
 10
12.873008
 20
187.516987
 30
0.0
  0
SPLINE
  5
198
100
AcDbEntity
  8
text
 62
1
100
AcDbSpline
 70
8
 71
3
 72
8
 73
4
 74
0
 40
0
 40
0
 40
0
 40
0
 40
1
 40
1
 40
1
 40
1
 10
12.873008
 20
187.516987
 30
0.0
 10
11.102063
 20
187.516987
 30
0.0
 10
9.920963
 20
188.698087
 30
0.0
 10
9.920963
 20
190.468679
 30
0.0
  0
LWPOLYLINE
  5
199
100
AcDbEntity
  8
text
 62
1
100
AcDbPolyline
 90
2
 70
0
 10
12.923808
 20
176.664809
 30
0.0
 10
12.923808
 20
179.026656
 30
0.0
  0
LWPOLYLINE
  5
19a
100
AcDbEntity
  8
text
 62
1
100
AcDbPolyline
 90
2
 70
0
 10
11.693319
 20
190.468679
 30
0.0
 10
14.053755
 20
190.468679
 30
0.0
  0
LWPOLYLINE
  5
19b
100
AcDbEntity
  8
text
 62
1
100
AcDbPolyline
 90
2
 70
0
 10
12.873008
 20
189.287932
 30
0.0
 10
12.873008
 20
191.649779
 30
0.0
  0
ENDSEC
  0
SECTION
  2
OBJECTS
  0
DICTIONARY
  5
C
330
0
100
AcDbDictionary
  3
ACAD_GROUP
350
D
  3
ACAD_MLINESTYLE
350
17
  0
DICTIONARY
  5
D
330
C
100
AcDbDictionary
  0
DICTIONARY
  5
1A
330
C
100
AcDbDictionary
  0
DICTIONARY
  5
17
330
C
100
AcDbDictionary
  3
STANDARD
350
18
  0
DICTIONARY
  5
19
330
C
100
AcDbDictionary
  0
ENDSEC
  0
EOF
